<?xml version="1.0" encoding="utf-8"?><svg xmlns="http://www.w3.org/2000/svg" xmlns:xlink="http://www.w3.org/1999/xlink"><symbol viewBox="0 0 129 129" id="arrow_dwn_svg" xmlns="http://www.w3.org/2000/svg"><path d="M121.3 34.6c-1.6-1.6-4.2-1.6-5.8 0l-51 51.1-51.1-51.1c-1.6-1.6-4.2-1.6-5.8 0-1.6 1.6-1.6 4.2 0 5.8l53.9 53.9c.8.8 1.8 1.2 2.9 1.2 1 0 2.1-.4 2.9-1.2l53.9-53.9c1.7-1.6 1.7-4.2.1-5.8z"/></symbol><symbol viewBox="0 0 129 129" id="arrow_r_svg" xmlns="http://www.w3.org/2000/svg"><path d="M40.4 121.3c-.8.8-1.8 1.2-2.9 1.2s-2.1-.4-2.9-1.2c-1.6-1.6-1.6-4.2 0-5.8l51-51-51-51c-1.6-1.6-1.6-4.2 0-5.8 1.6-1.6 4.2-1.6 5.8 0l53.9 53.9c1.6 1.6 1.6 4.2 0 5.8l-53.9 53.9z"/></symbol><symbol viewBox="0 0 320 512" id="close_svg" xmlns="http://www.w3.org/2000/svg"><path d="M193.94 256L296.5 153.44l21.15-21.15c3.12-3.12 3.12-8.19 0-11.31l-22.63-22.63c-3.12-3.12-8.19-3.12-11.31 0L160 222.06 36.29 98.34c-3.12-3.12-8.19-3.12-11.31 0L2.34 120.97c-3.12 3.12-3.12 8.19 0 11.31L126.06 256 2.34 379.71c-3.12 3.12-3.12 8.19 0 11.31l22.63 22.63c3.12 3.12 8.19 3.12 11.31 0L160 289.94 262.56 392.5l21.15 21.15c3.12 3.12 8.19 3.12 11.31 0l22.63-22.63c3.12-3.12 3.12-8.19 0-11.31L193.94 256z"/></symbol><symbol viewBox="0 0 512 512" id="down-arrow" xmlns="http://www.w3.org/2000/svg"><path d="M19 116.9c-14.9 3-23.2 19.8-16.5 33.3 2.6 5.1 239.2 241.1 243.9 243.3 5 2.2 14.2 2.2 19.2 0 4.7-2.2 241.3-238.2 243.9-243.3 7.4-14.8-3.5-33.1-19.9-33.5-11-.2-4-6.5-123.3 112.6L256 339.5 145.8 229.3C59.8 143.5 34.7 119 32 118.2c-5.6-1.7-9.3-2-13-1.3z"/></symbol><symbol viewBox="0 0 430.114 430.114" id="place_svg" xmlns="http://www.w3.org/2000/svg"><path d="M356.208 107.051c-1.531-5.738-4.64-11.852-6.94-17.205C321.746 23.704 261.611 0 213.055 0 148.054 0 76.463 43.586 66.905 133.427v18.355c0 .766.264 7.647.639 11.089 5.358 42.816 39.143 88.32 64.375 131.136 27.146 45.873 55.314 90.999 83.221 136.106 17.208-29.436 34.354-59.259 51.17-87.933 4.583-8.415 9.903-16.825 14.491-24.857 3.058-5.348 8.9-10.696 11.569-15.672 27.145-49.699 70.838-99.782 70.838-149.104v-20.262c.001-5.347-6.627-24.081-7-25.234zm-141.963 92.142c-19.107 0-40.021-9.554-50.344-35.939-1.538-4.2-1.414-12.617-1.414-13.388v-11.852c0-33.636 28.56-48.932 53.406-48.932 30.588 0 54.245 24.472 54.245 55.06 0 30.587-25.305 55.051-55.893 55.051z"/></symbol><symbol viewBox="0 0 489.533 489.533" id="reload_svg" xmlns="http://www.w3.org/2000/svg"><path d="M268.175 488.161c98.2-11 176.9-89.5 188.1-187.7 14.7-128.4-85.1-237.7-210.2-239.1v-57.6c0-3.2-4-4.9-6.7-2.9l-118.6 87.1c-2 1.5-2 4.4 0 5.9l118.6 87.1c2.7 2 6.7.2 6.7-2.9v-57.5c87.9 1.4 158.3 76.2 152.3 165.6-5.1 76.9-67.8 139.3-144.7 144.2-81.5 5.2-150.8-53-163.2-130-2.3-14.3-14.8-24.7-29.2-24.7-17.9 0-31.9 15.9-29.1 33.6 17.4 109.7 118.7 192 236 178.9z"/></symbol><symbol viewBox="0 0 30.239 30.239" id="search_svg" xmlns="http://www.w3.org/2000/svg"><path d="M20.194 3.46c-4.613-4.613-12.121-4.613-16.734 0-4.612 4.614-4.612 12.121 0 16.735 4.108 4.107 10.506 4.547 15.116 1.34.097.459.319.897.676 1.254l6.718 6.718a2.498 2.498 0 003.535 0 2.496 2.496 0 000-3.535l-6.718-6.72a2.5 2.5 0 00-1.253-.674c3.209-4.611 2.769-11.008-1.34-15.118zm-2.121 14.614c-3.444 3.444-9.049 3.444-12.492 0-3.442-3.444-3.442-9.048 0-12.492 3.443-3.443 9.048-3.443 12.492 0 3.444 3.444 3.444 9.048 0 12.492z"/></symbol><symbol viewBox="0 0 512 512" id="side-menu" xmlns="http://www.w3.org/2000/svg"><path d="M28 12c-8 3-13 11-13 19 0 10 5 17 14 20l132 1h128v408H161l-132 1c-9 3-14 10-14 20 0 7 3 12 9 17l4 3h142c159 0 147 1 154-7l5-8V26c-1-5-6-11-12-13-3-2-10-2-145-2L28 12z"/><path d="M49 83c-5 2-10 7-12 12-3 5-3 71-1 76 3 6 8 11 13 13l5 2h98l98-1 5-3c3-1 6-4 8-7l3-5v-35c0-34 0-35-2-40s-7-10-13-13l-101-1c-93 0-98 0-101 2zm345 81c-8 4-13 14-11 24 1 4 3 6 33 36l32 32-31 31c-20 20-31 32-32 35-3 7-2 16 3 22 6 6 18 8 25 4l42-40c40-40 43-43 43-51 0-9-2-11-44-53-34-33-41-40-45-41-5-1-10-1-15 1zM51 204c-6 2-11 6-13 12l-3 5v70l3 5c3 6 9 10 15 12l101 1 95-1 4-2c5-3 11-9 12-14v-72c-1-5-7-12-12-14l-5-3h-96l-101 1zm-2 124c-6 3-10 7-13 13l-1 38c0 38 0 39 7 46 7 6 1 6 109 6l100-1c6-3 11-8 13-13s2-6 2-40l-1-35-3-5c-1-3-4-6-7-7l-5-3-98-1H53l-5 2z"/></symbol><symbol viewBox="0 0 19.5 19.5" id="star2_svg" xmlns="http://www.w3.org/2000/svg"><path d="M10.2.8l2.5 5.8 6.3.6c.5 0 .6.6.3.8l-4.8 4.2 1.4 6.2c.1.4-.3.8-.7.6l-5.5-3.3L4.3 19a.5.5 0 01-.8-.6L5 12.2.2 8a.5.5 0 01.3-.8l6.3-.6L9.3.8c.2-.5.7-.5.9 0z"/></symbol><symbol viewBox="0 0 487.2 487.2" id="star_svg" xmlns="http://www.w3.org/2000/svg"><path d="M486.6 186.8a13.6 13.6 0 00-11-9.2l-152-21.6-68.3-137.5a13.5 13.5 0 00-24.2.1l-67.5 138-152 22.5c-5.1.8-9.3 4.3-11 9.2s-.1 10.3 3.6 13.8l110.3 107L89 460.3a13.3 13.3 0 005.4 13.2 13.4 13.4 0 0014.2 1l135.7-71.9 136 71.1a13.6 13.6 0 0019.3-15.1l-26.2-150.5L483 200.7c3.9-3.6 5.2-9 3.6-13.9zM349.6 294a13.3 13.3 0 00-3.8 12l22.9 131.3-118.2-61.7c-4-2-8.6-2-12.6 0L120 438l22-131.5c.8-4.4-.6-8.8-3.8-11.9l-95.6-92.8 131.9-19.6c4.4-.7 8.2-3.4 10-7.4L243.4 55l59.4 119.4c2 4 5.8 6.7 10.2 7.4l132 18.8-95.3 93.3z"/></symbol><symbol viewBox="0 0 563.43 563.43" id="user_svg" xmlns="http://www.w3.org/2000/svg"><path d="M280.79 314.559c83.266 0 150.803-67.538 150.803-150.803S364.055 13.415 280.79 13.415 129.987 80.953 129.987 163.756s67.537 150.803 150.803 150.803zm0-261.824c61.061 0 111.021 49.959 111.021 111.021s-49.96 111.02-111.021 111.02-111.021-49.959-111.021-111.021 49.959-111.02 111.021-111.02zM19.891 550.015h523.648c11.102 0 19.891-8.789 19.891-19.891 0-104.082-84.653-189.198-189.198-189.198H189.198C85.116 340.926 0 425.579 0 530.124c0 11.102 8.789 19.891 19.891 19.891zm169.307-169.307h185.034c75.864 0 138.313 56.436 148.028 129.524H41.17c9.714-72.625 72.164-129.524 148.028-129.524z"/></symbol></svg>