<svg version="1.0" xmlns="http://www.w3.org/2000/svg" width="682.7" height="682.7" viewBox="0 0 512 512"><path d="M28 12c-8 3-13 11-13 19 0 10 5 17 14 20l132 1h128v408H161l-132 1c-9 3-14 10-14 20 0 7 3 12 9 17l4 3h142c159 0 147 1 154-7l5-8V26c-1-5-6-11-12-13-3-2-10-2-145-2L28 12z"/><path d="M49 83c-5 2-10 7-12 12-3 5-3 71-1 76 3 6 8 11 13 13l5 2h98l98-1 5-3c3-1 6-4 8-7l3-5v-35c0-34 0-35-2-40s-7-10-13-13l-101-1c-93 0-98 0-101 2zM394 164c-8 4-13 14-11 24 1 4 3 6 33 36l32 32-31 31c-20 20-31 32-32 35-3 7-2 16 3 22 6 6 18 8 25 4l42-40c40-40 43-43 43-51 0-9-2-11-44-53-34-33-41-40-45-41-5-1-10-1-15 1zM51 204c-6 2-11 6-13 12l-3 5v70l3 5c3 6 9 10 15 12l101 1 95-1 4-2c5-3 11-9 12-14v-72c-1-5-7-12-12-14l-5-3h-96l-101 1zM49 328c-6 3-10 7-13 13l-1 38c0 38 0 39 7 46 7 6 1 6 109 6l100-1c6-3 11-8 13-13s2-6 2-40l-1-35-3-5c-1-3-4-6-7-7l-5-3-98-1H53l-5 2z"/></svg>